<svg xmlns="http://www.w3.org/2000/svg" viewBox="0 0 32 32" fill="none">
  <rect width="32" height="32" rx="6" fill="#3B82F6"/>
  <rect x="6" y="4" width="20" height="2.5" rx="1.25" fill="white"/>
  <rect x="6" y="8" width="20" height="20" rx="2" fill="white" fill-opacity="0.9"/>
  <rect x="10" y="6" width="2" height="4" rx="1" fill="white"/>
  <rect x="20" y="6" width="2" height="4" rx="1" fill="white"/>
  <rect x="9" y="12" width="4" height="3" rx="0.5" fill="#3B82F6"/>
  <rect x="14" y="12" width="4" height="3" rx="0.5" fill="#3B82F6" fill-opacity="0.4"/>
  <rect x="19" y="12" width="4" height="3" rx="0.5" fill="#3B82F6" fill-opacity="0.4"/>
  <rect x="9" y="17" width="4" height="3" rx="0.5" fill="#3B82F6" fill-opacity="0.4"/>
  <rect x="14" y="17" width="4" height="3" rx="0.5" fill="#3B82F6"/>
  <rect x="19" y="17" width="4" height="3" rx="0.5" fill="#3B82F6" fill-opacity="0.4"/>
  <rect x="9" y="22" width="4" height="3" rx="0.5" fill="#3B82F6" fill-opacity="0.4"/>
  <rect x="14" y="22" width="4" height="3" rx="0.5" fill="#3B82F6" fill-opacity="0.4"/>
  <rect x="19" y="22" width="4" height="3" rx="0.5" fill="#3B82F6"/>
</svg>
